<?xml version="1.0" encoding="UTF-8" standalone="no"?>
<!-- Generator: Adobe Illustrator 19.0.0, SVG Export Plug-In . SVG Version: 6.00 Build 0)  -->

<svg
   version="1.1"
   id="Capa_1"
   x="0px"
   y="0px"
   viewBox="0 0 57 57"
   style="enable-background:new 0 0 57 57;"
   xml:space="preserve"
   sodipodi:docname="power.svg"
   inkscape:version="1.2 (dc2aedaf03, 2022-05-15)"
   xmlns:inkscape="http://www.inkscape.org/namespaces/inkscape"
   xmlns:sodipodi="http://sodipodi.sourceforge.net/DTD/sodipodi-0.dtd"
   xmlns="http://www.w3.org/2000/svg"
   xmlns:svg="http://www.w3.org/2000/svg"><defs
   id="defs41" /><sodipodi:namedview
   id="namedview39"
   pagecolor="#ffffff"
   bordercolor="#666666"
   borderopacity="1.0"
   inkscape:showpageshadow="2"
   inkscape:pageopacity="0.0"
   inkscape:pagecheckerboard="0"
   inkscape:deskcolor="#d1d1d1"
   showgrid="false"
   inkscape:zoom="14.087719"
   inkscape:cx="28.5"
   inkscape:cy="22.785803"
   inkscape:window-width="951"
   inkscape:window-height="1043"
   inkscape:window-x="1772"
   inkscape:window-y="185"
   inkscape:window-maximized="1"
   inkscape:current-layer="Capa_1" />
<g
   id="g6">
	<path
   d="M28.5,29c1.104,0,2-0.896,2-2V2c0-1.104-0.896-2-2-2s-2,0.896-2,2v25C26.5,28.104,27.396,29,28.5,29z"
   id="path2" />
	<path
   d="M54.418,29.025c-0.007-0.091-0.013-0.183-0.021-0.274c-0.86-10.027-7.407-18.423-16.403-21.955   c-0.092-0.036-0.182-0.073-0.274-0.108c-0.584-0.221-1.177-0.422-1.78-0.602c-0.044-0.013-0.086-0.031-0.13-0.044   c-0.012-0.003-0.024,0-0.036-0.003C34.551,5.683,33.29,5.419,32,5.244v4.038C42.473,10.963,50.5,20.06,50.5,31   c0,12.131-9.869,22-22,22s-22-9.869-22-22c0-10.94,8.027-20.037,18.5-21.719V5.243c-1.278,0.174-2.529,0.435-3.742,0.786   c-0.012,0.003-0.025,0-0.037,0.003c-0.047,0.014-0.091,0.032-0.137,0.046c-0.604,0.179-1.198,0.379-1.783,0.601   c-0.09,0.034-0.178,0.071-0.268,0.106c-1.255,0.491-2.463,1.076-3.614,1.748c-0.01,0.006-0.02,0.011-0.031,0.017   C8.292,12.705,3.344,20.123,2.603,28.748c-0.008,0.091-0.014,0.183-0.021,0.275C2.533,29.676,2.5,30.334,2.5,31   c0,14.359,11.641,26,26,26s26-11.641,26-26C54.5,30.335,54.467,29.677,54.418,29.025z"
   id="path4" />
</g>
<g
   id="g8">
</g>
<g
   id="g10">
</g>
<g
   id="g12">
</g>
<g
   id="g14">
</g>
<g
   id="g16">
</g>
<g
   id="g18">
</g>
<g
   id="g20">
</g>
<g
   id="g22">
</g>
<g
   id="g24">
</g>
<g
   id="g26">
</g>
<g
   id="g28">
</g>
<g
   id="g30">
</g>
<g
   id="g32">
</g>
<g
   id="g34">
</g>
<g
   id="g36">
</g>
<path
   style="fill:#ffffff;stroke-width:0.0709838"
   d="M 26.441469,56.885052 C 20.345723,56.39678 14.560889,53.729811 10.223238,49.407999 2.9640909,42.175358 0.6307165,31.607744 4.1646974,21.969489 4.6178351,20.733644 5.7579246,18.417299 6.4711643,17.283392 9.669678,12.198397 14.472022,8.3776484 20.088418,6.4494944 21.505445,5.9630178 22.853283,5.6337028 24.68462,5.3265119 l 0.266189,-0.044651 V 7.2629102 9.2439594 L 24.329701,9.365383 c -6.165596,1.205343 -11.515197,4.962399 -14.7629637,10.368116 -1.5017411,2.49956 -2.4887306,5.355057 -2.9442268,8.518058 -0.1454293,1.009871 -0.1217502,4.6773 0.037123,5.749688 0.9958558,6.721981 4.7569145,12.408564 10.5136445,15.896249 5.24128,3.175403 11.761232,3.982107 17.715265,2.191886 5.139787,-1.545398 9.662384,-5.056555 12.453468,-9.668358 1.492393,-2.465932 2.512619,-5.288375 2.959106,-8.186329 0.188685,-1.224671 0.259946,-3.999981 0.135899,-5.292689 C 49.500739,19.184906 42.297039,11.247362 32.670299,9.365383 L 32.049191,9.2439594 V 7.2652878 5.2866162 l 0.301681,0.043226 c 0.165924,0.023775 0.700965,0.1212445 1.188979,0.2165999 10.416949,2.0354207 18.622648,10.3872559 20.507438,20.8726539 0.381962,2.124922 0.510784,5.198931 0.298408,7.120755 -0.8202,7.422135 -4.434262,13.82056 -10.300242,18.235802 -4.994426,3.759236 -11.36745,5.608949 -17.603986,5.109399 z"
   id="path354" /><path
   style="fill:#ffffff;stroke-width:0.0709838"
   d="M 28.169481,28.92016 C 27.54495,28.802534 27.040265,28.410356 26.715311,27.790162 L 26.547945,27.470735 V 14.516189 1.5616438 L 26.746777,1.1567454 C 27.102021,0.43333221 27.683569,0.07427433 28.5,0.07427433 c 0.816431,0 1.397979,0.35905788 1.753223,1.08247107 l 0.198832,0.4048984 V 14.516189 27.470735 l -0.189691,0.359423 c -0.42066,0.797058 -1.277869,1.243505 -2.092883,1.090002 z"
   id="path358" /></svg>
