<?xml version="1.0" encoding="UTF-8" standalone="no"?>
<svg
   width="24px"
   height="24px"
   viewBox="0 0 24 24"
   version="1.1"
   id="svg8"
   sodipodi:docname="restart-svgrepo-com.svg"
   inkscape:version="1.2 (dc2aedaf03, 2022-05-15)"
   xmlns:inkscape="http://www.inkscape.org/namespaces/inkscape"
   xmlns:sodipodi="http://sodipodi.sourceforge.net/DTD/sodipodi-0.dtd"
   xmlns="http://www.w3.org/2000/svg"
   xmlns:svg="http://www.w3.org/2000/svg">
  <defs
     id="defs12" />
  <sodipodi:namedview
     id="namedview10"
     pagecolor="#ffffff"
     bordercolor="#666666"
     borderopacity="1.0"
     inkscape:showpageshadow="2"
     inkscape:pageopacity="0.0"
     inkscape:pagecheckerboard="0"
     inkscape:deskcolor="#d1d1d1"
     showgrid="false"
     inkscape:zoom="33.458333"
     inkscape:cx="12"
     inkscape:cy="11.985056"
     inkscape:window-width="951"
     inkscape:window-height="1043"
     inkscape:window-x="1772"
     inkscape:window-y="185"
     inkscape:window-maximized="1"
     inkscape:current-layer="svg8" />
  <g
     id="g6">
    <path
       fill="none"
       d="M0 0h24v24H0z"
       id="path2" />
    <path
       d="M18.537 19.567A9.961 9.961 0 0 1 12 22C6.477 22 2 17.523 2 12S6.477 2 12 2s10 4.477 10 10c0 2.136-.67 4.116-1.81 5.74L17 12h3a8 8 0 1 0-2.46 5.772l.997 1.795z"
       id="path4" />
  </g>
  <path
     style="fill:#ffffff;stroke-width:0.0298879"
     d="M 11.13325,21.949725 C 10.371591,21.883681 9.3541462,21.659368 8.637609,21.39952 4.6623902,19.95793 2.0210324,16.213093 2.0183562,12.014944 2.0162387,8.6933221 3.6587799,5.5961703 6.4109589,3.7323164 10.373675,1.0486526 15.664254,1.5566095 19.053822,4.9461778 c 1.584404,1.5844039 2.558793,3.5762153 2.858558,5.8433612 0.06442,0.487212 0.07413,1.818941 0.01667,2.286426 -0.164278,1.336544 -0.548986,2.569702 -1.139531,3.652701 -0.219467,0.402479 -0.563393,0.950484 -0.595829,0.949381 -0.01064,-3.62e-4 -0.726851,-1.274708 -1.591584,-2.83188 l -1.572242,-2.831223 1.49005,-0.0077 1.49005,-0.0077 -3.2e-4,-0.216411 c -1.79e-4,-0.119026 -0.01988,-0.40067 -0.04378,-0.625875 C 19.770119,9.3127618 18.974096,7.6448682 17.664614,6.3353864 16.440086,5.1108583 14.96227,4.3638644 13.189872,4.0735312 12.647852,3.9847438 11.418721,3.9771301 10.894147,4.0593107 9.6456045,4.2549092 8.6131334,4.6429664 7.6214197,5.2893746 6.2210104,6.2021741 5.1406368,7.5321253 4.5355614,9.0880979 4.1328467,10.123693 3.9642528,11.117831 3.9991118,12.251352 c 0.030005,0.975685 0.1892454,1.764976 0.5367692,2.66055 0.399119,1.028537 0.9988089,1.949415 1.7844257,2.740148 1.2363199,1.244371 2.7645636,2.009021 4.5738403,2.288501 0.487642,0.07533 1.726504,0.07511 2.211706,-3.89e-4 1.646626,-0.256212 2.991295,-0.876442 4.216212,-1.944729 0.105499,-0.09201 0.200396,-0.167289 0.210883,-0.167289 0.02022,0 0.95185,1.667655 0.960057,1.718545 0.01442,0.08942 -1.084299,0.871158 -1.700169,1.209672 -1.192601,0.655513 -2.60042,1.079473 -3.965074,1.194067 -0.433349,0.03639 -1.270737,0.03604 -1.694512,-7.05e-4 z"
     id="path83" />
</svg>
