<?xml version="1.0" encoding="UTF-8" standalone="no"?>
<svg
   width="24px"
   height="24px"
   viewBox="0 0 24 24"
   version="1.1"
   id="svg389"
   sodipodi:docname="rest-time-svgrepo-com.svg"
   inkscape:version="1.2 (dc2aedaf03, 2022-05-15)"
   xmlns:inkscape="http://www.inkscape.org/namespaces/inkscape"
   xmlns:sodipodi="http://sodipodi.sourceforge.net/DTD/sodipodi-0.dtd"
   xmlns="http://www.w3.org/2000/svg"
   xmlns:svg="http://www.w3.org/2000/svg">
  <defs
     id="defs393" />
  <sodipodi:namedview
     id="namedview391"
     pagecolor="#ffffff"
     bordercolor="#666666"
     borderopacity="1.0"
     inkscape:showpageshadow="2"
     inkscape:pageopacity="0.0"
     inkscape:pagecheckerboard="0"
     inkscape:deskcolor="#d1d1d1"
     showgrid="false"
     inkscape:zoom="33.458333"
     inkscape:cx="12.014944"
     inkscape:cy="14.391034"
     inkscape:window-width="1908"
     inkscape:window-height="518"
     inkscape:window-x="815"
     inkscape:window-y="710"
     inkscape:window-maximized="1"
     inkscape:current-layer="svg389" />
  <g
     id="g387">
    <path
       fill="none"
       d="M0 0H24V24H0z"
       id="path383" />
    <path
       d="M11 6v2c-3.314 0-6 2.686-6 6s2.686 6 6 6c3.238 0 5.878-2.566 5.996-5.775L17 14h2c0 4.418-3.582 8-8 8s-8-3.582-8-8c0-4.335 3.58-8 8-8zm10-4v2l-5.327 6H21v2h-8v-2l5.326-6H13V2h8z"
       id="path385" />
  </g>
  <path
     style="fill:#ffffff;stroke-width:0.0298879"
     d="M 3.9337101,17.714173 C 3.816775,17.524968 3.5660416,16.929014 3.4220896,16.498132 2.9762588,15.163655 2.8983306,13.688001 3.2011193,12.313823 3.8291972,9.4633506 6.0674884,7.0960409 8.8767123,6.3110803 9.4580703,6.1486356 9.9810805,6.0635598 10.662516,6.0205913 l 0.321295,-0.02026 V 6.984997 7.9696627 l -0.410959,0.033687 C 8.6618768,8.1599936 7.0230354,9.1172638 5.9775948,10.687503 c -1.2102428,1.817771 -1.3147304,4.28074 -0.2623562,6.184228 0.1728269,0.312602 0.4890982,0.791946 0.5629851,0.853267 0.023689,0.01966 0.043071,0.04755 0.043071,0.06197 0,0.0146 -0.5158552,0.02623 -1.1631912,0.02623 H 3.9949126 Z"
     id="path518" />
  <path
     style="fill:#ffffff;stroke-width:0.0298879"
     d="M 13.016189,10.997571 V 10.010086 L 15.668742,7.0219263 C 17.127646,5.3784386 18.325778,4.0205651 18.331258,4.00443 18.337758,3.985385 17.407197,3.975093 15.678705,3.975093 H 13.016189 V 2.988792 2.0024907 h 3.990038 3.990037 v 0.9869972 0.9869973 l -2.673116,3.010512 -2.673115,3.0105121 2.673115,0.00763 2.673116,0.0076 v 0.986142 0.986141 h -3.990037 -3.990038 z"
     id="path520" />
  <path
     style="fill:#ffffff;stroke-width:0.0298879"
     d="M 10.430884,21.965429 C 8.8106448,21.842528 7.2718063,21.235794 5.992528,20.215471 5.6662756,19.95526 5.0459854,19.33497 4.7857741,19.008717 4.5816301,18.752762 4.2161226,18.218033 4.0656333,17.955168 L 3.9843574,17.8132 h 1.1735349 1.173535 l 0.2713972,0.289348 c 0.9391405,1.001258 2.1684394,1.645436 3.5291805,1.849363 0.442259,0.06628 1.294042,0.06603 1.733499,-5.08e-4 1.346716,-0.203903 2.520534,-0.805083 3.453484,-1.76873 0.990859,-1.023461 1.55364,-2.280733 1.676319,-3.744955 l 0.03521,-0.420283 h 0.983626 0.983625 l -0.01898,0.321295 c -0.122996,2.082535 -0.906764,3.860344 -2.329736,5.284503 -0.576781,0.577262 -1.120368,0.990905 -1.794764,1.365724 -1.309949,0.728051 -2.943736,1.088711 -4.423412,0.976472 z"
     id="path522" />
  <path
     style="fill:#ffffff;stroke-width:0.0298879"
     d="M 10.236613,21.935566 C 8.6908136,21.764312 7.228531,21.167372 6.0400148,20.222409 5.6620018,19.921859 5.0417147,19.299598 4.7637142,18.942046 3.1104889,16.81574 2.6082435,14.101969 3.4093332,11.623951 3.7483703,10.575205 4.3668554,9.4972399 5.0626112,8.742434 L 5.1867853,8.607721 6.7328697,8.6079433 8.2789539,8.6081656 8.0414152,8.7438457 C 6.3051371,9.735594 5.2083287,11.424453 5.0075524,13.415371 c -0.1471631,1.459284 0.2510282,2.932028 1.1203392,4.143667 l 0.159834,0.222775 -0.4688939,0.009 -0.468894,0.009 0.4727976,0.0067 0.4727977,0.0067 0.3790081,0.381324 c 0.5627967,0.566234 1.0464206,0.912117 1.7426471,1.246324 0.6766724,0.324819 1.3621689,0.505027 2.1295408,0.559825 2.242663,0.16015 4.27926,-0.84982 5.525995,-2.740399 0.48615,-0.73721 0.824628,-1.718757 0.917285,-2.660025 0.0178,-0.180822 0.03964,-0.385928 0.04854,-0.455791 l 0.01617,-0.127023 h 0.963961 0.963962 l -0.01104,0.186799 c -0.130297,2.204616 -0.895529,3.959081 -2.369218,5.431963 -1.234471,1.233794 -2.730899,1.977337 -4.542609,2.257123 -0.374411,0.05782 -1.456291,0.08289 -1.823163,0.04225 z"
     id="path524" />
  <path
     style="fill:#ffffff;stroke-width:0.0298879"
     d="M 10.236613,21.935566 C 8.4954121,21.742664 6.9013838,21.029704 5.6488169,19.883583 4.2456866,18.599694 3.3821938,16.959224 3.1038146,15.048568 3.0399616,14.610313 3.030908,13.488683 3.0877715,13.061021 3.2978901,11.48075 3.9271772,10.073057 4.9745913,8.8402738 L 5.1706102,8.6095638 6.7247821,8.6088647 8.2789539,8.6081656 8.0547945,8.7363469 C 6.3049315,9.7369732 5.212972,11.413936 5.0080322,13.415371 c -0.1504165,1.468963 0.2711016,2.995125 1.1593159,4.197457 l 0.1247612,0.168883 -0.4411978,0.0091 -0.4411979,0.0091 0.4457285,0.0066 0.4457286,0.0066 0.3313572,0.337232 c 0.5641408,0.574142 1.0848374,0.952557 1.7553845,1.275722 0.9630115,0.464114 1.9814176,0.65348 3.0776486,0.572268 2.449238,-0.181447 4.528596,-1.822196 5.269306,-4.157824 0.119085,-0.375502 0.239618,-0.9841 0.26933,-1.359901 0.0104,-0.131506 0.02638,-0.289539 0.03551,-0.351183 l 0.01661,-0.112079 h 0.963165 0.963166 l -0.01104,0.186799 c -0.130586,2.209505 -0.889334,3.949868 -2.367792,5.431079 -1.23708,1.239384 -2.720135,1.976339 -4.544035,2.258007 -0.374411,0.05782 -1.456291,0.08289 -1.823163,0.04225 z"
     id="path526" />
  <path
     style="fill:#ffffff;stroke-width:0.0298879"
     d="M 10.146949,21.924921 C 8.57699,21.723709 7.1976179,21.151206 6.0224159,20.213049 5.7093887,19.963161 5.0555989,19.311324 4.8048853,18.999155 4.3181334,18.39309 3.8702991,17.618593 3.5920344,16.901619 3.2415177,15.998481 3.080742,15.226829 3.0440384,14.271482 2.9685934,12.307751 3.6447849,10.405427 4.9745913,8.8402738 L 5.1706102,8.6095638 6.7220703,8.6086424 8.2735302,8.607721 7.9431903,8.8052006 C 7.4622575,9.0927058 7.1281647,9.3528989 6.739726,9.7424647 5.6427487,10.842625 5.0547176,12.197036 4.9875137,13.778331 c -0.057614,1.355637 0.3687268,2.734742 1.1893005,3.847089 l 0.1150294,0.155931 -0.3364573,0.0095 -0.3364573,0.0095 0.3452898,0.0064 0.3452897,0.0064 0.2823566,0.292082 c 0.9923145,1.026493 2.1066285,1.618253 3.4803639,1.848258 0.414598,0.06942 1.439618,0.06935 1.851768,-1.19e-4 1.170072,-0.197221 2.149694,-0.652496 3.027812,-1.407162 1.133139,-0.973833 1.847299,-2.33724 2.02469,-3.865346 0.02614,-0.225187 0.05443,-0.466592 0.06288,-0.536455 l 0.01535,-0.127023 h 0.968954 0.968955 l -0.0135,0.127023 c -0.0074,0.06986 -0.02854,0.301868 -0.04693,0.515567 -0.164337,1.910066 -0.95882,3.607742 -2.328931,4.976534 -1.24345,1.242253 -2.717179,1.974286 -4.54349,2.256851 -0.429855,0.06651 -1.50197,0.08417 -1.912827,0.03151 z"
     id="path528" />
  <path
     style="fill:#ffffff;stroke-width:0.0298879"
     d=""
     id="path530" />
  <path
     style="fill:#ffffff;stroke-width:0.0298879"
     d="M 10.228083,21.937075 C 8.6676329,21.758764 7.2138599,21.162935 6.0224159,20.213383 5.6687701,19.931536 4.9597382,19.210115 4.7124625,18.88054 4.2206238,18.225006 3.8656548,17.60195 3.6020542,16.931507 3.0134007,15.434323 2.8840818,13.881984 3.2173742,12.313823 3.3211731,11.825443 3.5871565,11.078686 3.8401432,10.56538 4.1599403,9.916516 4.4911736,9.4126302 4.974761,8.8393524 L 5.1701532,8.607721 H 6.7240337 8.2779144 L 7.95216,8.8014997 C 7.4974852,9.0719681 7.1067957,9.375283 6.7395291,9.7429353 5.8269364,10.656486 5.2497029,11.801693 5.0444741,13.105853 c -0.07005,0.445142 -0.068603,1.403559 0.00275,1.82188 0.1715153,1.005538 0.5078357,1.816366 1.1003152,2.652726 l 0.1421293,0.200634 -0.2755941,0.0099 -0.2755943,0.0099 0.284445,0.0062 0.2844452,0.0062 0.3282572,0.332152 c 0.7018565,0.710182 1.3573333,1.147797 2.2102604,1.475633 0.7415223,0.285015 1.287848,0.381939 2.152867,0.381939 0.693399,0 0.985205,-0.0354 1.568648,-0.190306 2.031486,-0.539359 3.650116,-2.131461 4.216391,-4.147288 0.102276,-0.364082 0.193731,-0.866683 0.220999,-1.214521 0.01031,-0.131506 0.02555,-0.282814 0.03386,-0.336239 l 0.01512,-0.09713 h 0.968595 0.968595 l -0.01333,0.141967 c -0.0073,0.07808 -0.02782,0.310087 -0.04554,0.515567 -0.05943,0.689409 -0.229843,1.45002 -0.477867,2.13292 -0.145116,0.399557 -0.532623,1.15839 -0.781465,1.530299 -1.322009,1.975826 -3.26219,3.204059 -5.618859,3.557024 -0.363325,0.05442 -1.489914,0.08025 -1.825821,0.04186 z"
     id="path532" />
</svg>
